<?xml version="1.0" encoding="UTF-8"?>
<!DOCTYPE svg PUBLIC "-//W3C//DTD SVG 1.1//EN" "http://www.w3.org/Graphics/SVG/1.1/DTD/svg11.dtd">
<!-- Creator: CorelDRAW -->
<svg xmlns="http://www.w3.org/2000/svg" xml:space="preserve" width="8.5in" height="11in" version="1.1" style="shape-rendering:geometricPrecision; text-rendering:geometricPrecision; image-rendering:optimizeQuality; fill-rule:evenodd; clip-rule:evenodd"
viewBox="0 0 8500 11000"
 xmlns:xlink="http://www.w3.org/1999/xlink"
 xmlns:xodm="http://www.corel.com/coreldraw/odm/2003">
 <defs>
  <style type="text/css">
   <![CDATA[
    .fil0 {fill:#001345;fill-rule:nonzero}
   ]]>
  </style>
 </defs>
 <g id="Layer_x0020_1">
  <metadata id="CorelCorpID_0Corel-Layer"/>
  <g id="_2570278326672">
   <path class="fil0" d="M2176.54 5150.92l-142.85 82.48c-2.27,1.28 -3.68,3.7 -3.68,6.31 0,0.02 0,0.04 0,0.05l-0 40.73c0,0.02 0,0.04 0,0.05 0,2.62 -1.41,5.03 -3.69,6.31l-118.41 66.85c-1.09,0.63 -2.34,0.97 -3.61,0.97 -1.41,0 -2.8,-0.41 -3.98,-1.19l-353.89 -236.16c-1.98,-1.35 -3.17,-3.59 -3.17,-6 0,-2.59 1.38,-4.98 3.62,-6.28l629.11 -363.26c1.12,-0.66 2.39,-1 3.69,-1 1.3,0 2.57,0.34 3.69,1l624.3 360.58c2.3,1.28 3.72,3.7 3.72,6.33 0,2.44 -1.23,4.72 -3.26,6.06l-364.05 237.82c-1.18,0.78 -2.56,1.19 -3.97,1.19 -1.27,0 -2.52,-0.33 -3.62,-0.96l-107.92 -62.28c-2.21,-1.3 -3.57,-3.68 -3.57,-6.25 0,-0.04 0,-0.08 0,-0.11l-0.01 -47.55c0.01,-0.03 0.01,-0.07 0.01,-0.11 0,-2.57 -1.36,-4.94 -3.57,-6.25l-137.61 -79.35c-1.09,-0.63 -2.35,-0.97 -3.62,-0.97 -1.28,0 -2.53,0.34 -3.63,0.97l-0.01 0z"/>
   <path class="fil0" d="M5653.07 5150.47c0,163.62 -132.69,296.3 -296.31,296.3 -163.62,0 -296.3,-132.69 -296.3,-296.3 0,-163.61 132.69,-296.3 296.3,-296.3 163.62,0 296.31,132.69 296.31,296.3zm-295.87 246.64c3.89,-0.04 3.89,-0.04 3.89,-0.04 129.33,-2.26 232.28,-114.73 229.89,-251.15 0,0 0,0 0,0 -2.39,-136.42 -109.21,-245.21 -238.54,-242.95 -0,0 -0,0 -0,0 -129.33,2.27 -232.28,114.73 -229.89,251.15 0,0 0,0 0,0 2.39,136.42 109.2,245.22 238.54,242.95l-3.89 0.04z"/>
   <path class="fil0" d="M3337.43 5330.82c1.34,0 2.31,-0.82 2.9,-2.45 38.99,-95.76 100.63,-247.01 184.93,-453.78 1.42,-3.5 4.81,-5.8 8.59,-5.8 0,0 0,0 0,0l75.89 0c3.42,0 5.13,1.74 5.13,5.24l0 555.22c0,1.71 -0.85,2.57 -2.57,2.57l-52 0c-1.71,0 -2.57,-0.89 -2.57,-2.68l0 -476.88c0,-8.85 -1.71,-9.19 -5.13,-1l-196.98 473.2c-1.41,3.5 -3.98,5.69 -7.7,6.58 -2.91,0.74 -6.4,1.11 -10.5,1.11 -4.02,0 -7.51,-0.37 -10.49,-1.11 -3.64,-0.89 -6.17,-3.09 -7.59,-6.58l-197.43 -472.97c-3.42,-8.18 -5.13,-7.85 -5.13,1l0.44 476.88c0,1.78 -0.85,2.68 -2.56,2.68l-52.01 0c-1.71,0 -2.56,-0.85 -2.56,-2.57l-0.45 -555.22c0,-3.5 1.71,-5.24 5.13,-5.24l75.89 -0.11c0.01,0 0.01,0 0.01,0 3.78,0 7.18,2.3 8.59,5.8 84.44,206.69 146.19,357.91 185.26,453.66 0.67,1.63 1.64,2.45 2.9,2.45z"/>
   <path class="fil0" d="M3783.61 4868.68l48.88 0c2.35,0 4.24,1.9 4.24,4.24l-0 554.44c0,2.34 -1.89,4.24 -4.24,4.24l-48.89 0c-2.33,0 -4.24,-1.9 -4.24,-4.24l-0 -554.44c0,-2.34 1.91,-4.24 4.24,-4.24z"/>
   <path class="fil0" d="M3999.9 4872.81c0,-1.91 1.56,-3.46 3.46,-3.46l190.28 0c159.24,-0 288.38,121.09 288.38,270.41l0 21.21c-0,149.32 -129.14,270.41 -288.38,270.41l-190.29 -0c-1.91,0 -3.46,-1.55 -3.46,-3.46l-0 -555.11zm57.81 49.89l-0.89 454.89c0,1.54 1.25,2.79 2.79,2.79l126 0.23c0.39,-0.01 0.45,-0.01 0.45,-0.01 130.28,0 235.93,-100.87 235.93,-225.29l-0 -9.4c0,-0.42 0,-0.45 0,-0.45 0,-124.42 -105.59,-225.3 -235.87,-225.32l-125.62 -0.22c-1.54,0 -2.78,1.25 -2.78,2.79l-0 0z"/>
   <path class="fil0" d="M4676.55 5176.03l0 253.67c0,1.41 -0.67,2.12 -2.01,2.12l-52.34 0c-2.01,0 -3.02,-1.04 -3.02,-3.13l0 -552.31c0,-4.39 2.16,-6.62 6.47,-6.7 94.2,-1.93 160.78,-1.07 199.77,2.57 20.16,1.94 43.05,8.89 68.64,20.87 53.35,25.11 77.57,76.11 73.21,135.48 -5.73,78.05 -52.01,123.92 -138.83,137.61 -22.17,3.5 -70.91,4.91 -146.2,4.24 -3.79,0 -5.69,1.86 -5.69,5.58zm0.22 -254.56l-0.44 196.2c-0,1.66 1.35,3.01 3.01,3.01l115.18 0.22c0.17,0 0.2,0 0.22,0 63.9,0 115.72,-41.01 115.73,-91.6l0.01 -18.77c-0.01,-0.2 -0.01,-0.22 -0.01,-0.22 0,-50.58 -51.78,-91.6 -115.67,-91.62l-115 -0.22c-1.67,0 -3.02,1.35 -3.02,3.01l0 0z"/>
   <path class="fil0" d="M5789.56 4868.79l49.33 0c2.21,-0 4.02,1.8 4.02,4.02l0 554.88c0,2.22 -1.8,4.02 -4.02,4.02l-49.33 0c-2.22,0 -4.02,-1.8 -4.02,-4.02l0.01 -554.88c-0.01,-2.22 1.79,-4.02 4.01,-4.02z"/>
   <path class="fil0" d="M6211.75 5165.31c-43.6,-64.28 -91.44,-134.52 -143.52,-210.7 -3.2,-4.83 -4.8,-4.35 -4.8,1.45l0 473.08c0,1.34 -0.67,2.01 -2.01,2.01l-52.68 0c-1.86,0 -2.79,-0.93 -2.79,-2.79l0 -554.78c0,-3.65 1.82,-5.47 5.47,-5.47l58.48 0c4.31,0 7.78,1.75 10.38,5.24 8.63,11.31 68.04,98.25 178.23,260.82 43.53,64.28 91.33,134.52 143.41,210.7 3.28,4.83 4.91,4.35 4.91,-1.45l0 -473.08c0,-1.34 0.67,-2.01 2.01,-2.01l52.68 0c1.86,0 2.79,0.93 2.79,2.79l0 554.78c0,3.65 -1.82,5.47 -5.46,5.47l-58.48 0c-4.31,0 -7.78,-1.75 -10.38,-5.24 -8.63,-11.31 -68.04,-98.25 -178.23,-260.82z"/>
   <path class="fil0" d="M6782.82 5431.93c-13.54,0 -21.09,-0.11 -22.66,-0.33 -3.94,-0.6 -5.91,-2.91 -5.91,-6.92l0 -498.3c0,-4.39 -2.2,-6.58 -6.58,-6.58l-176.89 0c-3.35,0 -5.02,-1.64 -5.02,-4.91l0 -41.52c0,-2.97 1.48,-4.46 4.46,-4.46 69.86,0 140.77,0 212.71,0 71.87,0 142.74,0 212.6,0 2.98,0 4.46,1.49 4.46,4.46l0 41.52c0,3.27 -1.67,4.91 -5.02,4.91l-176.89 0c-4.39,0 -6.58,2.19 -6.58,6.58l0 498.3c0,4.02 -1.97,6.32 -5.91,6.92 -1.57,0.22 -9.15,0.33 -22.77,0.33z"/>
   <path class="fil0" d="M2549.62 5711.5l0 -148.21c0.01,-0.01 0.01,-0.02 0.01,-0.02 0,-1.66 -0.9,-3.19 -2.35,-4l-60.94 -35.15c-1.44,-0.81 -2.34,-2.33 -2.34,-3.99 0,-0.01 0,-0.02 0,-0.03l0 -108.7c0.02,-1.54 0.82,-2.97 2.12,-3.8l360.03 -235.48c0.74,-0.46 1.59,-0.71 2.46,-0.71 2.53,0 4.58,2.05 4.58,4.57 0,0.01 0,0.03 0,0.05l-0 715.7c0,0 0,0.01 0,0.02 0,1.66 -0.9,3.19 -2.35,4l-621.41 350.99c-0.68,0.38 -1.45,0.58 -2.23,0.58 -2.49,0 -4.53,-2 -4.57,-4.49l-0.01 -382.79c0.01,-0.01 0.01,-0.02 0.01,-0.03 0,-1.66 0.9,-3.19 2.34,-3.99l137.05 -77.34c0.68,-0.38 1.45,-0.58 2.23,-0.58 0.78,0 1.56,0.2 2.23,0.58l31.91 18.41c0.69,0.38 1.46,0.58 2.24,0.58 0.78,0 1.55,-0.2 2.23,-0.58l144.41 -81.58c1.45,-0.81 2.35,-2.34 2.35,-4 0,-0.01 0,-0.02 0,-0.02l-0.01 0z"/>
   <path class="fil0" d="M1958.13 5794.41l30.47 -19.86c0.74,-0.48 1.61,-0.74 2.49,-0.74 0.81,0 1.61,0.21 2.31,0.62l151.56 87.5c1.39,0.83 2.24,2.32 2.24,3.93 0,0.03 0,0.06 0,0.09l-0.01 388.7c-0,2.52 -2.05,4.56 -4.57,4.56 -0.83,0 -1.63,-0.22 -2.34,-0.65l-638.04 -368.41c-1.39,-0.82 -2.23,-2.31 -2.23,-3.93 0,-0.03 0,-0.06 0,-0.09l-0 -711.35c0,0 0,-0 0,-0 0,-2.53 2.05,-4.58 4.58,-4.58 0.91,0 1.81,0.28 2.57,0.79l360.36 240.5c1.26,0.85 2.01,2.27 2.01,3.79 0,0 0,0 0,0.01l-0 99.32c-0.02,1.54 -0.82,2.97 -2.12,3.8l-51.9 34.04c-1.29,0.83 -2.09,2.26 -2.11,3.8l-0 154.79c0,0.03 0,0.06 0,0.09 0,1.61 0.85,3.1 2.23,3.93l137.72 79.46c0.7,0.41 1.5,0.63 2.31,0.63 0.89,0 1.75,-0.26 2.49,-0.74l-0 0z"/>
   <path class="fil0" d="M2264.7 5233.72c0.07,0.59 0.11,0.93 0.11,1.01 -0.15,1.48 -0.26,2.27 -0.33,2.34l-80.69 49.33c-2.83,1.71 -6.29,1.56 -10.38,-0.45 -26.04,-12.72 -52.08,-27.27 -78.13,-43.63 -0.96,-0.67 -1.45,-1.45 -1.45,-2.35 -0.07,-1.19 0.37,-2.16 1.34,-2.9 24.92,-17.93 50,-34.04 75.22,-48.32 4.02,-2.23 7.47,-2.61 10.37,-1.12l83.59 44.42c0.07,0 0.19,0.74 0.33,2.23 0.07,0.15 0.07,-0.04 0,-0.56z"/>
   <path class="fil0" d="M2283.34 5271.56c1.34,0.74 2.01,1.82 2.01,3.24 0.67,30.43 0.7,60.82 0.11,91.18 0,0.07 -0.56,1 -1.68,2.79 -1.04,1.71 -1.6,2.6 -1.67,2.68 -26.85,14.21 -54.01,27.79 -81.47,40.73 -1.34,0.67 -2.64,0.59 -3.91,-0.22 -1.26,-0.82 -1.93,-1.93 -2.01,-3.34 -0.67,-30.36 -0.67,-60.76 0,-91.18 0,0 0.52,-0.89 1.56,-2.68 1.12,-1.78 1.67,-2.68 1.67,-2.68 26.93,-14.21 54.13,-27.83 81.58,-40.85 1.26,-0.59 2.53,-0.48 3.8,0.33z"/>
   <path class="fil0" d="M2071.74 5273.9c0.59,-0.37 1.19,-0.63 1.78,-0.78 0.97,-0.15 1.6,-0.15 1.9,0 26.63,12.94 52.71,25.96 78.23,39.06 3.83,1.97 6.3,5.91 6.37,10.22 0.44,28.37 0.18,57.93 -0.78,88.65 0,0.45 -0.56,1.04 -1.68,1.78 -1.12,0.67 -1.93,0.93 -2.45,0.78 -27.83,-12.94 -54.31,-25.96 -79.46,-39.06 -3.96,-2.09 -6.37,-6.11 -6.36,-10.5 -0.22,-28.57 -0.15,-57.65 0.22,-87.26 0,-0.3 0.3,-0.85 0.89,-1.67 0.37,-0.52 0.82,-0.93 1.34,-1.23z"/>
   <path class="fil0" d="M2401.19 5477.69c-1.65,-0.97 -3.74,-0.97 -5.46,0.01l-133.48 82.13c-3.88,2.42 -6.25,6.69 -6.25,11.27 0,0 0,0 0,0l-0 133.25c0,4.61 1.9,8.19 5.7,10.71l52.67 35.16c1.13,0.77 1.81,2.05 1.81,3.41 0,1.51 -0.82,2.89 -2.14,3.62l-126.78 71.65c-7,4.02 -13.99,3.98 -20.98,-0.11l-124.21 -71.65c-1.54,-0.87 -2.49,-2.5 -2.49,-4.27 0,-1.72 0.91,-3.32 2.38,-4.21l52.67 -32.37c3.06,-1.89 4.84,-5.18 4.81,-8.71l-0.01 -138.93c0.04,-7.07 -3.72,-13.69 -9.83,-17.25l-128.67 -74.27c-3.65,-2.08 -8.07,-2.11 -11.66,-0.08l-31.42 17.82c-0.74,0.41 -1.59,0.63 -2.45,0.63 -2.82,0 -5.11,-2.27 -5.13,-5.09l-0 -87.94c-0.01,-2.23 1.17,-4.33 3.08,-5.44l107.3 -60.63c1.09,-0.61 2.32,-0.93 3.57,-0.93 4.04,0 7.32,3.25 7.37,7.28l0 36.27c0,3.42 1.45,5.99 4.35,7.7l132.81 76.56c1.99,1.17 4.26,1.79 6.57,1.79 2.46,0 4.87,-0.7 6.94,-2.01 35.71,-22.84 77.71,-48.25 126,-76.23 20.31,-11.72 20.2,-23.66 16.74,-45.09 -0.05,-0.35 -0.08,-0.71 -0.08,-1.07 0,-3.39 2.75,-6.14 6.14,-6.14 1.09,0 2.16,0.29 3.1,0.85l105.13 60.71c3.45,2 5.58,5.69 5.58,9.71l-0 88.17c0,0.01 0,0.02 0,0.02 0,2.83 -2.3,5.13 -5.13,5.13 -0.9,0 -1.79,-0.24 -2.57,-0.69l-35.94 -20.76zm-190.95 66.63c0.01,-19.17 -15.54,-34.71 -34.7,-34.71 -19.17,0 -34.71,15.54 -34.71,34.71 0,19.17 15.54,34.71 34.71,34.71 19.17,0 34.71,-15.54 34.71,-34.71l-0.01 0z"/>
   <path class="fil0" d="M2314.92 5563.62c0,-0.89 0.49,-1.68 1.45,-2.34 25.74,-16.37 51.52,-30.91 77.34,-43.64 4.09,-2.01 7.55,-2.16 10.38,-0.44l80.35 48.65c0.08,0.08 0.15,0.86 0.22,2.35 0,0.07 0,0.37 0,0.89 0,-0.44 0,-0.59 0,-0.44 -0.15,1.41 -0.3,2.15 -0.44,2.23l-82.81 44.31c-2.9,1.56 -6.32,1.23 -10.27,-1 -25.07,-14.06 -50.03,-29.95 -74.88,-47.65 -0.96,-0.67 -1.41,-1.64 -1.34,-2.9z"/>
   <path class="fil0" d="M2034.46 5566.64c-0.07,1.19 -0.56,2.08 -1.45,2.68 -24.26,15.92 -48.51,30.13 -72.76,42.63 -3.87,1.93 -7.15,2.12 -9.82,0.56l-76.89 -45.09c-0.08,-0.07 -0.19,-0.78 -0.34,-2.12 0,-0.15 0,0 0,0.45 0,-0.45 0,-0.74 0,-0.9 0.15,-1.41 0.26,-2.11 0.34,-2.11l78.01 -43.3c2.68,-1.49 5.91,-1.23 9.71,0.78 24.03,13.02 47.99,27.75 71.87,44.19 0.9,0.67 1.34,1.42 1.34,2.24z"/>
   <path class="fil0" d="M2068.95 5597.66l0 92.52c-0.01,1.66 -0.91,3.19 -2.34,4.02l-85.04 49.11c-0.71,0.41 -1.52,0.63 -2.34,0.63 -2.59,0 -4.69,-2.1 -4.69,-4.69 0,-0.02 0,-0.05 0,-0.07l-0 -92.4c0.02,-1.66 0.91,-3.19 2.35,-4.02l85.03 -49.22c0.72,-0.41 1.53,-0.63 2.35,-0.63 2.59,0 4.69,2.1 4.69,4.69 0,0.02 0,0.05 0,0.07l-0 0z"/>
   <path class="fil0" d="M2420.95 5743.86c-0.82,-0.45 -1.27,-1.26 -1.34,-2.46 -2.01,-31.32 -2.38,-61.75 -1.11,-91.29 0.15,-4.61 1.67,-7.77 4.57,-9.48l83.48 -48.33c0.15,0 0.9,0.3 2.23,0.89 0.15,0.07 0.45,0.22 0.89,0.45 -0.44,-0.22 -0.59,-0.3 -0.44,-0.22 1.19,0.89 1.79,1.41 1.79,1.56l-0.89 96.43c-0.07,3.35 -2.08,6.25 -6.03,8.7 -25.07,15.63 -51.71,30.28 -79.91,43.97 -1.12,0.52 -2.2,0.45 -3.24,-0.22z"/>
   <path class="fil0" d="M1936.93 5646.09l0 94.97c0,0.01 0,0.01 0,0.01 0,1.85 -1.5,3.35 -3.35,3.35 -0.59,0 -1.17,-0.15 -1.68,-0.44l-86.16 -49.67c-1.03,-0.59 -1.67,-1.7 -1.67,-2.9 0,0 0,0 0,-0l0 -95.08c0,-0 0,-0 0,-0 0,-1.85 1.5,-3.35 3.35,-3.35 0.59,0 1.16,0.16 1.67,0.45l86.15 49.78c1.04,0.59 1.68,1.7 1.68,2.9 0,0 0,0 0,0l-0 0z"/>
   <path class="fil0" d="M2378.54 5644.09c1.12,1.93 1.67,3.87 1.67,5.81 0.15,29.76 -0.52,59.59 -2.01,89.5 -0.02,0.35 -0.07,0.66 -0.17,0.95 -0.61,1.88 -2.58,2.92 -4.4,2.33 -0.29,-0.1 -0.57,-0.23 -0.83,-0.41 -11.36,-6.75 -36.01,-21.44 -73.96,-44.06 -0.37,-0.22 -1.45,-1.9 -3.23,-5.02 -1.86,-3.05 -2.8,-4.8 -2.8,-5.24 -1.56,-44.12 -2.56,-72.8 -3.01,-86.05 -0.02,-0.27 0,-0.58 0.06,-0.89 0.36,-1.87 2.22,-3.09 4.16,-2.71 0.26,0.05 0.53,0.13 0.77,0.24 26.95,13.1 53.45,26.91 79.49,41.42 1.71,0.89 3.13,2.27 4.24,4.13z"/>
   <path class="fil0" d="M6326.26 6099.53c40.25,54.54 92.74,75.78 157.47,63.73 26.56,-4.99 48.99,-17.07 67.3,-36.27 16.96,-17.78 25.89,-39.84 26.78,-66.18 4.02,-114.06 -148.99,-111.71 -226.11,-162.16 -50.56,-33.15 -68.86,-84.48 -60.37,-143.19 14.5,-100 117.63,-139.5 209.14,-128.67 50.44,6.03 91.96,26.44 124.55,61.26 2.68,2.83 2.49,5.47 -0.56,7.93l-37.05 30.13c-3.05,2.46 -5.8,2.05 -8.26,-1.22 -21.8,-28.65 -52.64,-45.43 -92.52,-50.33 -51.89,-6.36 -112.72,14.84 -132.7,66.41 -21.99,57.13 6.03,109.7 63.5,129.9 68.07,24 139.94,41.85 177.44,78.79 35.64,35.11 48.36,80.8 38.17,137.04 -18.53,101.67 -124.55,140.29 -219.3,126.11 -56.92,-8.48 -102.53,-34.22 -136.82,-77.23 -0.03,-0.03 -0.06,-0.06 -0.08,-0.1 -1.59,-2.19 -1.15,-5.24 1,-6.8 0.06,-0.04 0.13,-0.09 0.19,-0.13l45.21 -29.46c1.05,-0.63 2.33,-0.42 3.03,0.47l-0.02 -0.03z"/>
   <path class="fil0" d="M3337.65 6202.09c-4.02,0 -7.51,-0.37 -10.49,-1.11 -3.72,-0.82 -6.28,-2.98 -7.7,-6.47l-197.54 -472.97c-3.42,-8.19 -5.13,-7.85 -5.13,1l0.67 476.87c0,1.79 -0.85,2.68 -2.56,2.68l-52.01 0.11c-1.71,0 -2.57,-0.86 -2.57,-2.57l-0.78 -555.22c0,-3.5 1.71,-5.24 5.13,-5.24l75.89 -0.11c0,0 0,0 0,0 3.78,0 7.18,2.3 8.59,5.81 84.52,206.61 146.34,357.79 185.48,453.55 0.67,1.56 1.63,2.34 2.9,2.34 1.33,0 2.31,-0.78 2.9,-2.34 38.91,-95.83 100.48,-247.13 184.7,-453.89 1.42,-3.5 4.82,-5.8 8.6,-5.8 0,0 0,0 0,0l75.89 0c3.42,0 5.13,1.74 5.13,5.24l0.22 555.11c0,1.71 -0.85,2.57 -2.56,2.57l-52.01 0c-1.71,0 -2.57,-0.89 -2.57,-2.68l-0.22 -476.76c0,-8.85 -1.71,-9.19 -5.13,-1.01l-196.76 473.2c-1.41,3.5 -3.94,5.69 -7.59,6.58 -2.97,0.74 -6.47,1.11 -10.49,1.11z"/>
   <path class="fil0" d="M3983.94 5638.95c6.62,0 14.03,0.37 22.21,1.11 4.31,0.37 7.33,2.57 9.04,6.59l235.37 549.3c1.86,4.24 0.44,6.36 -4.24,6.36l-48.1 0c-4.69,0 -7.96,-2.16 -9.83,-6.47l-58.03 -135.26c-1.41,-3.35 -3.91,-5.13 -7.48,-5.35 -8.93,-0.59 -55.47,-0.97 -139.61,-1.11 -84.15,-0.15 -130.69,0.07 -139.61,0.67 -3.57,0.22 -6.06,2.01 -7.48,5.36l-58.48 135.04c-1.94,4.31 -5.25,6.47 -9.93,6.47l-48.1 -0.22c-4.69,0 -6.06,-2.12 -4.13,-6.37l237.15 -548.52c1.71,-4.02 4.72,-6.21 9.04,-6.59 8.11,-0.67 15.52,-1 22.21,-1zm-123.77 358.02c-0.17,0.43 -0.26,0.88 -0.26,1.34 0,1.88 1.51,3.43 3.4,3.46l237.93 0c1.89,-0.03 3.4,-1.57 3.4,-3.46 0,-0.46 -0.09,-0.92 -0.27,-1.34l-118.86 -287.37c-0.5,-1.35 -1.8,-2.24 -3.23,-2.24 -1.44,0 -2.73,0.89 -3.24,2.24l-118.86 287.37z"/>
   <path class="fil0" d="M4570.52 5933.02c-0.25,0.03 -0.5,0.09 -0.74,0.18 -1.79,0.65 -2.7,2.69 -2.03,4.54 0.08,0.22 0.19,0.44 0.31,0.65l160.15 260.48c0.19,0.3 0.29,0.65 0.29,1 0,1.03 -0.82,1.87 -1.85,1.9l-64.73 0c-2.75,0 -4.54,-0.74 -5.35,-2.23l-147.65 -255.8c-2.01,-3.42 -5.02,-5.13 -9.04,-5.13l-84.15 0c-4.69,0 -7.03,2.31 -7.03,6.92l0 253.11c0,1.79 -1.44,3.24 -3.23,3.24l-51.01 0c-2.08,0 -3.13,-1.04 -3.13,-3.12l0 -552.43c0,-4.46 2.2,-6.73 6.58,-6.81 82.44,-1.41 147.47,-0.93 195.09,1.45 33.85,1.71 67.85,12.57 102,32.59 41.96,24.55 60.04,85.71 52.9,133.81 -10.56,71.28 -56.36,113.17 -137.38,125.67zm-162.05 -241.39l0.67 194.63c0,1.48 1.2,2.68 2.69,2.68l121.2 -0.45c65.24,0 118.41,-40.63 118.41,-90.73 0,0 0,-0.04 0,-0.04l0 -18.94c-0.02,-49.68 -53.19,-90.29 -118.75,-90.29 0,0 -0.01,0 -0.01,0l-121.52 0.45c-1.48,0 -2.67,1.2 -2.67,2.68l-0 0z"/>
   <path class="fil0" d="M4896.3 6201.87l-50.45 0c-1.92,0 -3.46,-1.55 -3.46,-3.46l0 -556c-0,-1.91 1.54,-3.46 3.46,-3.46l50.45 0c1.91,0 3.45,1.55 3.45,3.46l0 241.39c-0,0 -0,0.01 -0,0.02 0,1.91 1.55,3.46 3.46,3.46 0.87,0 1.7,-0.33 2.34,-0.92l262.83 -246.63c0.63,-0.58 1.46,-0.89 2.32,-0.89 0.01,0 0.02,0 0.02,0l71.09 0c0,0 0.01,0 0.02,0 1.91,0 3.46,1.55 3.46,3.46 0,0.98 -0.41,1.91 -1.14,2.56l-277.11 248.65c-0.72,0.66 -1.14,1.59 -1.14,2.57 0,0.92 0.37,1.81 1.02,2.46l297.43 297.42c0.65,0.65 1.02,1.54 1.02,2.46 0,1.91 -1.55,3.46 -3.46,3.46 -0,0 -0.01,0 -0.02,0l-78.57 0c-0.93,-0.02 -1.82,-0.43 -2.45,-1.11l-275.1 -293.07c-0.66,-0.72 -1.59,-1.14 -2.57,-1.14 -1.91,0 -3.46,1.55 -3.46,3.46 0,0.01 0,0.02 0,0.03l0 288.38c-0,1.91 -1.55,3.46 -3.46,3.46l0 0z"/>
   <path class="fil0" d="M5685.99 5887.83l0 41.96c-0,2.28 -1.85,4.13 -4.13,4.13l-264.61 0c-2.29,0 -4.13,1.85 -4.13,4.13l0 208.8c-0,2.28 1.84,4.13 4.13,4.13l293.19 0c2.28,0 4.13,1.85 4.13,4.13l0 42.52c-0,2.28 -1.85,4.13 -4.13,4.13l-350.54 0c-2.28,0 -4.13,-1.85 -4.13,-4.13l0 -554.55c-0,-2.28 1.85,-4.13 4.13,-4.13l340.95 0c2.28,0 4.13,1.85 4.13,4.13l0 42.63c-0,2.28 -1.85,4.13 -4.13,4.13l-283.58 0c-2.29,0 -4.13,1.85 -4.13,4.13l0 185.59c-0,2.28 1.84,4.13 4.13,4.13l264.61 0c2.28,0 4.13,1.85 4.13,4.13l0 0z"/>
   <path class="fil0" d="M5993.35 5638.95c71.87,0 142.74,0 212.6,0 2.98,0 4.46,1.49 4.46,4.46l0 41.51c0,3.28 -1.67,4.92 -5.02,4.92l-176.89 0c-4.39,0 -6.59,2.19 -6.59,6.58l0 498.19c0,4.02 -1.97,6.32 -5.91,6.92 -1.56,0.22 -9.15,0.33 -22.77,0.33 -13.54,0 -21.09,-0.11 -22.66,-0.33 -3.94,-0.6 -5.91,-2.91 -5.91,-6.92l0 -498.19c0,-4.39 -2.19,-6.58 -6.58,-6.58l-176.89 0c-3.35,0 -5.02,-1.64 -5.02,-4.92l0 -41.51c0,-2.98 1.49,-4.46 4.46,-4.46 69.86,0 140.77,0 212.72,0z"/>
  </g>
 </g>
</svg>
