<svg width="500" height="457" viewBox="0 0 500 457" fill="none" xmlns="http://www.w3.org/2000/svg">
<g clip-path="url(#clip0)">
<path d="M317.224 113.905L240.112 0L163 113.905L240.112 221.022L317.224 113.905Z" fill="white"/>
<path d="M330.327 238.178C305.025 196.555 328.838 160.136 365.303 160.136C401.768 160.136 431.683 187.265 449.631 202.13C467.579 216.995 500 244.124 500 244.124C500 244.124 467.579 271.253 449.631 286.118C431.683 300.983 401.768 328.112 365.303 328.112C328.838 328.112 305.025 291.692 330.327 250.07C310.234 250.07 287.909 264.935 278.978 270.881L278.978 217.366C287.909 223.313 310.234 238.178 330.327 238.178Z" fill="#016699"/>
<path d="M150.976 238.178C173.772 205.879 162.488 160.136 121.114 160.136C79.7394 160.136 66.0748 199.13 83.5007 222.377C50.4013 178.221 -5.47408e-06 202.88 -3.67124e-06 244.124C-1.8684e-06 285.368 50.4013 310.026 83.5007 265.871C66.0748 289.117 79.7394 328.112 121.114 328.112C162.488 328.112 173.772 282.368 150.976 250.07C171.082 250.07 193.422 264.935 202.358 270.881L202.358 217.366C193.422 223.313 171.082 238.178 150.976 238.178Z" fill="white"/>
<path d="M240 424.354C204.679 484.82 154 450.038 154 410.404C154 370.77 181.779 338.255 197 318.747C212.221 299.239 240 264 240 264C240 264 267.779 299.239 283 318.747C298.221 338.255 326 370.77 326 410.404C326 450.038 275.321 484.82 240 424.354Z" fill="white"/>
</g>
<defs>
<clipPath id="clip0">
<rect width="500" height="456.778" fill="white"/>
</clipPath>
</defs>
</svg>
